<svg aria-hidden="true" style="position: absolute; width: 0; height: 0; overflow: hidden;" version="1.1" xmlns="http://www.w3.org/2000/svg" xmlns:xlink="http://www.w3.org/1999/xlink">
<defs>
<symbol id="icon-logo" viewBox="0 0 80 32">
<title>logo</title>
<path fill="#fff" style="fill: var(--color1, #fff)" d="M0 0h80v32h-80v-32z"></path>
<path fill="#005eb8" style="fill: var(--color2, #005eb8)" d="M0 32.395h80.45v-32.395h-80.45v32.395zM32.345 3.126l-5.553 26.075h-8.715l-5.48-18.042h-0.073l-3.646 18.042h-6.609l5.599-26.075h8.744l5.371 18.082h0.074l3.679-18.082h6.609zM57.273 3.126l-5.446 26.075h-7.018l2.328-11.168h-8.301l-2.328 11.168h-7.018l5.445-26.075h7.019l-2.063 9.976h8.297l2.066-9.976h7.018zM77.437 3.837l-1.693 5.192c-1.351-0.633-3.191-1.192-5.781-1.192-2.776 0-5.031 0.407-5.031 2.502 0 3.696 10.176 2.317 10.176 10.237 0 7.208-6.722 9.078-12.805 9.078-2.703 0-5.819-0.638-8.109-1.349l1.653-5.305c1.386 0.898 4.168 1.497 6.456 1.497 2.181 0 5.593-0.413 5.593-3.102 0-4.186-10.175-2.616-10.175-9.971 0-6.727 5.934-8.744 11.679-8.744 3.231 0 6.27 0.338 8.035 1.158z"></path>
</symbol>
<symbol id="icon-download4" viewBox="0 0 16 16">
<title>download4</title>
<path d="M14 11v2h-12v-2h-2v4h16v-4zM12 6h-3v-5h-2v5h-3l4 6z"></path>
</symbol>
<symbol id="icon-facebook" viewBox="0 0 16 16">
<title>facebook</title>
<path d="M9.5 3h2.5v-3h-2.5c-1.93 0-3.5 1.57-3.5 3.5v1.5h-2v3h2v8h3v-8h2.5l0.5-3h-3v-1.5c0-0.271 0.229-0.5 0.5-0.5z"></path>
</symbol>
<symbol id="icon-instagram" viewBox="0 0 16 16">
<title>instagram</title>
<path d="M14.5 0h-13c-0.825 0-1.5 0.675-1.5 1.5v13c0 0.825 0.675 1.5 1.5 1.5h13c0.825 0 1.5-0.675 1.5-1.5v-13c0-0.825-0.675-1.5-1.5-1.5zM11 2.5c0-0.275 0.225-0.5 0.5-0.5h2c0.275 0 0.5 0.225 0.5 0.5v2c0 0.275-0.225 0.5-0.5 0.5h-2c-0.275 0-0.5-0.225-0.5-0.5v-2zM8 5c1.656 0 3 1.344 3 3s-1.344 3-3 3c-1.656 0-3-1.344-3-3s1.344-3 3-3zM14 13.5v0c0 0.275-0.225 0.5-0.5 0.5h-11c-0.275 0-0.5-0.225-0.5-0.5v0-6.5h1.1c-0.066 0.322-0.1 0.656-0.1 1 0 2.762 2.237 5 5 5s5-2.238 5-5c0-0.344-0.034-0.678-0.1-1h1.1v6.5z"></path>
</symbol>
</defs>
</svg>
