<?xml version="1.0" standalone="no"?>
<!DOCTYPE svg PUBLIC "-//W3C//DTD SVG 20010904//EN"
 "http://www.w3.org/TR/2001/REC-SVG-20010904/DTD/svg10.dtd">
<svg version="1.0" xmlns="http://www.w3.org/2000/svg"
 width="520.000000pt" height="520.000000pt" viewBox="0 0 520.000000 520.000000"
 preserveAspectRatio="xMidYMid meet">
<metadata>
Created by potrace 1.11, written by Peter Selinger 2001-2013
</metadata>
<g transform="translate(0.000000,520.000000) scale(0.100000,-0.100000)"
fill="#000000" stroke="none">
<path d="M0 2600 l0 -2600 2600 0 2600 0 0 2600 0 2600 -2600 0 -2600 0 0
-2600z m3163 1925 c282 -37 503 -141 688 -325 231 -230 326 -505 299 -864 -26
-340 -131 -582 -355 -815 -183 -191 -427 -337 -690 -413 -196 -57 -230 -60
-652 -65 l-391 -5 -6 -31 c-147 -831 -236 -1337 -236 -1341 0 -3 -171 -6 -381
-6 l-381 0 6 27 c3 16 154 876 336 1913 182 1037 333 1897 336 1913 l6 27 653
0 c524 0 677 -3 768 -15z"/>
<path d="M2376 3813 c-3 -10 -44 -241 -91 -513 -47 -272 -88 -508 -91 -523
l-6 -29 309 5 c347 5 379 10 522 79 163 78 289 238 326 415 47 219 -8 404
-147 498 -108 72 -144 79 -500 83 -299 3 -316 2 -322 -15z"/>
</g>
</svg>
