<svg aria-hidden="true" style="position: absolute; width: 0; height: 0; overflow: hidden;" version="1.1" xmlns="http://www.w3.org/2000/svg" xmlns:xlink="http://www.w3.org/1999/xlink">
<defs>
<symbol id="icon-tagline" viewBox="0 0 48 32">
<title>tagline</title>
<path d="M1.663 0h2.5c0.761 0 1.369 0.217 1.837 0.663 0.467 0.435 0.696 0.978 0.685 1.63 0 0.837-0.315 1.511-0.935 2.032s-1.369 0.782-2.271 0.782h-0.837l-0.435 2.5h-1.88l1.337-7.608zM3.967 1.75h-0.728l-0.283 1.608h0.728c0.609 0 1.043-0.369 1.043-0.989 0-0.413-0.25-0.619-0.761-0.619zM10.966 2.011l-0.315 1.782c-0.424 0-0.804 0.109-1.141 0.315-0.315 0.185-0.511 0.478-0.576 0.891l-0.456 2.608h-1.771l0.978-5.543h1.5l0.022 0.837c0.337-0.598 0.924-0.891 1.761-0.891zM14.172 1.945c0.793 0 1.402 0.261 1.837 0.772s0.565 1.272 0.402 2.271l-0.054 0.326h-3.586c-0.011 0.033-0.011 0.076-0.011 0.141 0 0.467 0.315 0.804 0.88 0.804 0.446 0 0.739-0.152 0.891-0.446h1.75c-0.587 1.272-1.532 1.913-2.847 1.913-0.739 0-1.326-0.228-1.771-0.674-0.446-0.456-0.663-1.054-0.663-1.782 0-0.935 0.293-1.717 0.869-2.358 0.587-0.641 1.358-0.967 2.304-0.967zM14.041 3.347c-0.554 0-0.978 0.326-1.076 0.891h1.804c0.076-0.533-0.207-0.891-0.728-0.891zM20.399 3.608c-0.565 0-1.087 0.435-1.217 1.119-0.12 0.685 0.261 1.119 0.826 1.119 0.609 0 1.217-0.391 1.348-1.054l0.011-0.076c0.098-0.739-0.348-1.109-0.967-1.109zM20.29 1.945c0.739 0 1.239 0.272 1.511 0.815l0.261-0.696h1.5l-0.978 5.553c-0.13 0.772-0.489 1.38-1.065 1.804s-1.293 0.641-2.152 0.641c-1.598 0-2.608-0.739-2.532-2.293h1.706c0 0.467 0.337 0.696 1 0.696 0.696 0 1.206-0.424 1.293-0.978l0.109-0.598c-0.348 0.359-0.967 0.619-1.63 0.619-0.696 0-1.239-0.261-1.619-0.772-0.38-0.522-0.489-1.195-0.348-2.011 0.141-0.826 0.5-1.5 1.054-2.011 0.565-0.511 1.195-0.772 1.891-0.772zM28.050 1.945c1.163 0 1.652 0.761 1.424 2.054l-0.63 3.608h-1.771l0.554-3.173c0.087-0.511-0.043-0.761-0.391-0.761-0.446 0-0.859 0.326-0.978 1.032l-0.511 2.902h-1.771l0.978-5.543h1.5l0.011 0.696c0.402-0.543 0.924-0.815 1.587-0.815zM33.397 1.945c0.772 0 1.272 0.293 1.511 0.88l0.261-0.761h1.5l-0.978 5.543h-1.5l-0.022-0.63c-0.413 0.5-1.011 0.75-1.793 0.75-0.619 0-1.119-0.228-1.511-0.696-0.38-0.467-0.576-1.054-0.576-1.739 0-0.88 0.293-1.663 0.88-2.337s1.326-1.011 2.228-1.011zM33.506 3.608c-0.38 0-0.696 0.141-0.967 0.435-0.272 0.283-0.402 0.63-0.402 1.043 0 0.576 0.413 0.978 0.935 0.978 0.304 0 0.598-0.109 0.869-0.315 0.283-0.217 0.456-0.511 0.511-0.88l0.011-0.065c0.12-0.739-0.348-1.195-0.956-1.195zM41.2 1.945c1.163 0 1.652 0.761 1.424 2.054l-0.63 3.608h-1.771l0.554-3.173c0.087-0.511-0.043-0.761-0.391-0.761-0.446 0-0.859 0.326-0.978 1.032l-0.511 2.902h-1.771l0.978-5.543h1.5l0.011 0.696c0.402-0.543 0.924-0.815 1.587-0.815zM44.852 0.761h1.782l-0.25 1.304h1.152l-0.283 1.608h-1.163l-0.326 1.695c-0.087 0.522 0.076 0.717 0.554 0.717 0.206 0 0.38-0.022 0.522-0.065l-0.272 1.543c-0.239 0.076-0.565 0.12-0.967 0.12-1.358 0-1.934-0.554-1.685-1.858l0.402-2.152h-0.815l0.283-1.608h0.826l0.239-1.304zM17.177 12.813c0.772 0 1.272 0.293 1.511 0.88l0.261-0.761h1.5l-0.978 5.543h-1.5l-0.022-0.63c-0.413 0.5-1.011 0.75-1.793 0.75-0.619 0-1.119-0.228-1.511-0.696-0.38-0.467-0.576-1.054-0.576-1.739 0-0.88 0.293-1.663 0.88-2.337s1.326-1.011 2.228-1.011zM17.285 14.476c-0.38 0-0.696 0.141-0.967 0.435-0.272 0.283-0.402 0.63-0.402 1.043 0 0.576 0.413 0.978 0.935 0.978 0.304 0 0.598-0.109 0.869-0.315 0.283-0.217 0.456-0.511 0.511-0.88l0.011-0.065c0.12-0.739-0.348-1.195-0.956-1.195zM24.98 12.813c1.163 0 1.652 0.761 1.424 2.054l-0.63 3.608h-1.771l0.554-3.173c0.087-0.511-0.043-0.761-0.391-0.761-0.446 0-0.859 0.326-0.978 1.032l-0.511 2.902h-1.771l0.978-5.543h1.5l0.011 0.696c0.402-0.543 0.924-0.815 1.587-0.815zM32.164 10.542h1.771l-1.402 7.934h-1.5l-0.033-0.63c-0.413 0.5-1.011 0.75-1.793 0.75-0.619 0-1.119-0.228-1.511-0.696-0.38-0.467-0.576-1.054-0.576-1.739 0-0.88 0.293-1.663 0.88-2.337s1.326-1.011 2.228-1.011c0.663 0 1.13 0.228 1.413 0.685l0.522-2.956zM30.338 14.476c-0.38 0-0.696 0.141-0.967 0.435-0.272 0.283-0.402 0.63-0.402 1.043 0 0.576 0.413 0.978 0.935 0.978 0.304 0 0.598-0.109 0.869-0.315 0.283-0.217 0.456-0.511 0.511-0.88l0.011-0.065c0.12-0.739-0.348-1.195-0.956-1.195zM1.337 21.736h2.5c0.761 0 1.369 0.217 1.837 0.663 0.467 0.435 0.696 0.978 0.685 1.63 0 0.837-0.315 1.511-0.935 2.032s-1.369 0.782-2.271 0.782h-0.837l-0.435 2.5h-1.88l1.337-7.608zM3.641 23.486h-0.728l-0.283 1.608h0.728c0.609 0 1.043-0.369 1.043-0.989 0-0.413-0.25-0.619-0.761-0.619zM10.64 23.746l-0.315 1.782c-0.424 0-0.804 0.109-1.141 0.315-0.315 0.185-0.511 0.478-0.576 0.891l-0.456 2.608h-1.771l0.978-5.543h1.5l0.022 0.837c0.337-0.598 0.924-0.891 1.761-0.891zM13.846 23.681c0.793 0 1.402 0.261 1.837 0.772s0.565 1.272 0.402 2.271l-0.054 0.326h-3.586c-0.011 0.033-0.011 0.076-0.011 0.141 0 0.467 0.315 0.804 0.88 0.804 0.446 0 0.739-0.152 0.891-0.446h1.75c-0.587 1.272-1.532 1.913-2.847 1.913-0.739 0-1.326-0.228-1.771-0.674-0.446-0.456-0.663-1.054-0.663-1.782 0-0.935 0.293-1.717 0.869-2.358 0.587-0.641 1.358-0.967 2.304-0.967zM13.715 25.083c-0.554 0-0.978 0.326-1.076 0.891h1.804c0.076-0.533-0.207-0.891-0.728-0.891zM21.051 23.681c0.619 0 1.119 0.239 1.5 0.706 0.391 0.467 0.587 1.043 0.587 1.728 0 0.88-0.293 1.663-0.88 2.337s-1.326 1.011-2.228 1.011c-0.652 0-1.119-0.228-1.402-0.685l-0.522 2.902h-1.771l1.391-7.879h1.5l0.033 0.63c0.413-0.5 1.011-0.75 1.793-0.75zM20.356 25.344c-0.304 0-0.598 0.109-0.88 0.326-0.272 0.206-0.446 0.5-0.5 0.869l-0.011 0.065c-0.12 0.739 0.348 1.195 0.956 1.195 0.38 0 0.696-0.141 0.967-0.424 0.272-0.293 0.402-0.641 0.402-1.054 0-0.576-0.413-0.978-0.935-0.978zM26.974 23.681c0.772 0 1.272 0.293 1.511 0.88l0.261-0.761h1.5l-0.978 5.543h-1.5l-0.022-0.63c-0.413 0.5-1.011 0.75-1.793 0.75-0.619 0-1.119-0.228-1.511-0.696-0.38-0.467-0.576-1.054-0.576-1.739 0-0.88 0.293-1.663 0.88-2.337s1.326-1.011 2.228-1.011zM27.083 25.344c-0.38 0-0.696 0.141-0.967 0.435-0.272 0.283-0.402 0.63-0.402 1.043 0 0.576 0.413 0.978 0.935 0.978 0.304 0 0.598-0.109 0.869-0.315 0.283-0.217 0.456-0.511 0.511-0.88l0.011-0.065c0.12-0.739-0.348-1.195-0.956-1.195zM34.962 23.746l-0.315 1.782c-0.424 0-0.804 0.109-1.141 0.315-0.315 0.185-0.511 0.478-0.576 0.891l-0.456 2.608h-1.771l0.978-5.543h1.5l0.022 0.837c0.337-0.598 0.924-0.891 1.761-0.891zM38.168 23.681c0.793 0 1.402 0.261 1.837 0.772s0.565 1.272 0.402 2.271l-0.054 0.326h-3.586c-0.011 0.033-0.011 0.076-0.011 0.141 0 0.467 0.315 0.804 0.88 0.804 0.446 0 0.739-0.152 0.891-0.446h1.75c-0.587 1.272-1.532 1.913-2.847 1.913-0.739 0-1.326-0.228-1.771-0.674-0.446-0.456-0.663-1.054-0.663-1.782 0-0.935 0.293-1.717 0.869-2.358 0.587-0.641 1.358-0.967 2.304-0.967zM38.038 25.083c-0.554 0-0.978 0.326-1.076 0.891h1.804c0.076-0.533-0.206-0.891-0.728-0.891zM46.189 21.41h1.771l-1.402 7.934h-1.5l-0.033-0.63c-0.413 0.5-1.011 0.75-1.793 0.75-0.619 0-1.119-0.228-1.511-0.696-0.38-0.467-0.576-1.054-0.576-1.739 0-0.88 0.293-1.663 0.88-2.337s1.326-1.011 2.228-1.011c0.663 0 1.13 0.228 1.413 0.685l0.522-2.956zM44.363 25.344c-0.38 0-0.696 0.141-0.967 0.435-0.272 0.283-0.402 0.63-0.402 1.043 0 0.576 0.413 0.978 0.935 0.978 0.304 0 0.598-0.109 0.869-0.315 0.283-0.217 0.456-0.511 0.511-0.88l0.011-0.065c0.12-0.739-0.348-1.195-0.956-1.195z"></path>
</symbol>
<symbol id="icon-hash" viewBox="0 0 4 32">
<title>hash</title>
<path d="M1.216 29.741v0.445l0.592 0.111v-0.421h0.274v0.473l0.81 0.151v0.322l-0.81-0.151v0.425l0.81 0.151v0.322l-0.81-0.151v0.389h-0.274v-0.441l-0.592-0.111v0.393h-0.274v-0.445l-0.794-0.147v-0.322l0.794 0.147v-0.425l-0.794-0.147v-0.322l0.794 0.147v-0.393h0.274zM1.807 30.619l-0.592-0.111v0.425l0.592 0.111v-0.425zM1.99 27.866c0.156-0.066 0.279-0.111 0.369-0.135v-0.008c-0.064 0.005-0.164 0.008-0.302 0.008h-1.986v-0.369h2.82v0.433l-2.030 0.886-0.334 0.127v0.012c0.050-0.005 0.131-0.008 0.242-0.008h2.121v0.369h-2.82v-0.485l1.919-0.83zM0.071 24.879h2.82v0.369h-1.287v1.081h1.287v0.369h-2.82v-0.369h1.224v-1.081h-1.224v-0.369zM2.959 23.274c0 0.318-0.082 0.562-0.246 0.733s-0.375 0.275-0.632 0.312l-0.071-0.358c0.188-0.034 0.342-0.107 0.461-0.218s0.179-0.266 0.179-0.465c0-0.159-0.034-0.295-0.103-0.407s-0.184-0.169-0.346-0.169c-0.090 0-0.166 0.013-0.228 0.038s-0.113 0.062-0.151 0.111c-0.038 0.049-0.067 0.095-0.085 0.139s-0.037 0.1-0.056 0.169l-0.099 0.377c-0.124 0.463-0.385 0.695-0.783 0.695-0.217 0-0.404-0.083-0.56-0.25s-0.234-0.383-0.234-0.648c0-0.278 0.064-0.506 0.191-0.683s0.327-0.279 0.6-0.306l0.103 0.354c-0.207 0.016-0.356 0.081-0.447 0.197s-0.137 0.258-0.137 0.427c0 0.188 0.044 0.324 0.133 0.407s0.195 0.125 0.32 0.125c0.119 0 0.219-0.040 0.3-0.121s0.14-0.185 0.177-0.312l0.095-0.361c0.029-0.109 0.061-0.201 0.095-0.278s0.081-0.153 0.141-0.228c0.060-0.075 0.138-0.132 0.234-0.171s0.21-0.058 0.34-0.058c0.222 0 0.413 0.080 0.572 0.24s0.238 0.397 0.238 0.709zM0.906 19.993h0.274v0.755h1.712v0.338h-1.712v0.608h-0.274v-0.608h-0.218c-0.458 0-0.687-0.249-0.687-0.747 0-0.101 0.013-0.216 0.040-0.346h0.298c-0.021 0.156-0.032 0.271-0.032 0.346 0 0.151 0.030 0.257 0.089 0.318s0.165 0.091 0.316 0.091h0.195v-0.755zM0.032 18.086h0.477v0.477h-0.477v-0.477zM2.892 19.095h-0.278v-0.636h-1.43v0.576h-0.278v-0.914h1.708v-0.671h0.278v1.645zM1.422 16.219c-0.164-0.069-0.298-0.181-0.401-0.338s-0.155-0.335-0.155-0.536c0-0.146 0.013-0.265 0.040-0.358h0.314c-0.026 0.106-0.040 0.229-0.040 0.369 0 0.249 0.084 0.454 0.252 0.616s0.409 0.242 0.721 0.242h0.739v0.338h-1.986v-0.334h0.516zM2.94 13.347c0 0.238-0.057 0.432-0.171 0.582s-0.277 0.242-0.489 0.276l-0.060-0.342c0.294-0.053 0.441-0.23 0.441-0.532 0-0.132-0.026-0.234-0.079-0.306s-0.126-0.107-0.218-0.107c-0.098 0-0.171 0.026-0.218 0.077s-0.078 0.132-0.091 0.24l-0.036 0.322c-0.021 0.191-0.082 0.335-0.183 0.433s-0.23 0.147-0.389 0.147c-0.18 0-0.323-0.068-0.429-0.203s-0.159-0.319-0.159-0.552c0-0.225 0.055-0.41 0.165-0.554s0.256-0.227 0.439-0.248l0.075 0.334c-0.124 0.024-0.223 0.076-0.296 0.157s-0.109 0.187-0.109 0.32c0 0.132 0.026 0.235 0.077 0.308s0.125 0.109 0.22 0.109c0.175 0 0.275-0.119 0.302-0.358l0.036-0.318c0.040-0.365 0.228-0.548 0.564-0.548 0.191 0 0.34 0.067 0.447 0.201s0.161 0.321 0.161 0.562zM1.18 11.794h-0.274v-0.568h-0.52l-0.143-0.338h0.663v-0.775h0.274v0.775h1.029c0.262 0 0.393-0.127 0.393-0.381 0-0.138-0.012-0.269-0.036-0.393h0.31c0.034 0.148 0.052 0.278 0.052 0.389 0 0.241-0.060 0.422-0.181 0.542s-0.284 0.181-0.491 0.181h-1.077v0.568zM2.94 8.382c0 0.238-0.057 0.432-0.171 0.582s-0.277 0.242-0.489 0.276l-0.060-0.342c0.294-0.053 0.441-0.23 0.441-0.532 0-0.132-0.026-0.234-0.079-0.306s-0.126-0.107-0.218-0.107c-0.098 0-0.171 0.026-0.218 0.077s-0.078 0.132-0.091 0.24l-0.036 0.322c-0.021 0.191-0.082 0.335-0.183 0.433s-0.23 0.147-0.389 0.147c-0.18 0-0.323-0.068-0.429-0.203s-0.159-0.319-0.159-0.552c0-0.225 0.055-0.41 0.165-0.554s0.256-0.227 0.439-0.248l0.075 0.334c-0.124 0.024-0.223 0.076-0.296 0.157s-0.109 0.187-0.109 0.32c0 0.132 0.026 0.235 0.077 0.308s0.125 0.109 0.22 0.109c0.175 0 0.275-0.119 0.302-0.358l0.036-0.318c0.040-0.365 0.228-0.548 0.564-0.548 0.191 0 0.34 0.067 0.447 0.201s0.161 0.321 0.161 0.562zM1.18 6.829h-0.274v-0.568h-0.52l-0.143-0.338h0.663v-0.775h0.274v0.775h1.029c0.262 0 0.393-0.127 0.393-0.381 0-0.138-0.012-0.269-0.036-0.393h0.31c0.034 0.148 0.052 0.278 0.052 0.389 0 0.241-0.060 0.422-0.181 0.542s-0.284 0.181-0.491 0.181h-1.077v0.568zM1.835 2.63c0.032 0 0.082 0.003 0.151 0.008v1.394c0.191 0 0.348-0.052 0.471-0.157s0.185-0.247 0.185-0.427c0-0.228-0.118-0.403-0.354-0.524l0.151-0.286c0.334 0.17 0.501 0.44 0.501 0.81 0 0.305-0.097 0.536-0.29 0.693s-0.457 0.236-0.79 0.236c-0.305 0-0.548-0.081-0.729-0.244s-0.272-0.383-0.272-0.661c0-0.289 0.090-0.501 0.27-0.638s0.416-0.205 0.707-0.205zM1.708 2.979c-0.169-0.005-0.31 0.036-0.421 0.123s-0.167 0.216-0.167 0.385c0 0.17 0.059 0.303 0.177 0.399s0.255 0.145 0.411 0.145v-1.053zM0.906 1.45h0.369c-0.117-0.056-0.215-0.14-0.296-0.252s-0.121-0.236-0.121-0.371c0-0.257 0.096-0.459 0.288-0.606s0.442-0.22 0.749-0.22c0.313 0 0.565 0.075 0.757 0.226s0.288 0.358 0.288 0.62c0 0.124-0.034 0.242-0.101 0.352s-0.154 0.187-0.26 0.232h1.088v0.338h-2.761v-0.318zM1.942 1.438c0.212 0 0.381-0.048 0.508-0.143s0.191-0.226 0.191-0.393c0-0.172-0.068-0.306-0.203-0.401s-0.316-0.143-0.544-0.143c-0.225 0-0.405 0.046-0.538 0.137s-0.201 0.223-0.201 0.395c0 0.167 0.062 0.3 0.187 0.399s0.293 0.149 0.504 0.149h0.095z"></path>
</symbol>
<symbol id="icon-download4" viewBox="0 0 32 32">
<title>download4</title>
<path d="M28 22v4h-24v-4h-4v8h32v-8zM24 12h-6v-10h-4v10h-6l8 12z"></path>
</symbol>
<symbol id="icon-facebook" viewBox="0 0 32 32">
<title>facebook</title>
<path d="M19 6h5v-6h-5c-3.86 0-7 3.14-7 7v3h-4v6h4v16h6v-16h5l1-6h-6v-3c0-0.542 0.458-1 1-1z"></path>
</symbol>
<symbol id="icon-instagram" viewBox="0 0 32 32">
<title>instagram</title>
<path d="M29 0h-26c-1.65 0-3 1.35-3 3v26c0 1.65 1.35 3 3 3h26c1.65 0 3-1.35 3-3v-26c0-1.65-1.35-3-3-3zM22 5c0-0.55 0.45-1 1-1h4c0.55 0 1 0.45 1 1v4c0 0.55-0.45 1-1 1h-4c-0.55 0-1-0.45-1-1v-4zM16 10c3.313 0 6 2.688 6 6s-2.688 6-6 6c-3.313 0-6-2.688-6-6s2.688-6 6-6zM28 27v0c0 0.55-0.45 1-1 1h-22c-0.55 0-1-0.45-1-1v0-13h2.2c-0.131 0.644-0.2 1.313-0.2 2 0 5.525 4.475 10 10 10s10-4.475 10-10c0-0.688-0.069-1.356-0.2-2h2.2v13z"></path>
</symbol>
<symbol id="icon-logo" viewBox="0 0 80 32">
<title>logo</title>
<path fill="#fff" style="fill: var(--color1, #fff)" d="M0 0h80v32h-80v-32z"></path>
<path fill="#005eb8" style="fill: var(--color2, #005eb8)" d="M0 32.395h80.45v-32.395h-80.45v32.395zM32.345 3.126l-5.553 26.075h-8.715l-5.48-18.042h-0.073l-3.646 18.042h-6.609l5.599-26.075h8.744l5.371 18.082h0.074l3.679-18.082h6.609zM57.273 3.126l-5.446 26.075h-7.018l2.328-11.168h-8.301l-2.328 11.168h-7.018l5.445-26.075h7.019l-2.063 9.976h8.297l2.066-9.976h7.018zM77.437 3.837l-1.693 5.192c-1.351-0.633-3.191-1.192-5.781-1.192-2.776 0-5.031 0.407-5.031 2.502 0 3.696 10.176 2.317 10.176 10.237 0 7.208-6.722 9.078-12.805 9.078-2.703 0-5.819-0.638-8.109-1.349l1.653-5.305c1.386 0.898 4.168 1.497 6.456 1.497 2.181 0 5.593-0.413 5.593-3.102 0-4.186-10.175-2.616-10.175-9.971 0-6.727 5.934-8.744 11.679-8.744 3.231 0 6.27 0.338 8.035 1.158z"></path>
</symbol>
</defs>
</svg>
